# Blender 5.2.0 LTS
# www.blender.org
mtllib fish.mtl
o Plane
v 0.071501 0.206614 0.759057
v 0.269354 -0.359177 0.979116
v 0.316114 -0.315586 0.794555
v 0.349041 -0.285655 0.833499
v 0.331981 0.223868 0.264783
v 0.503192 -0.382084 -0.087826
v 0.459556 -0.584037 0.063042
v 0.441445 -0.492695 0.135000
v 0.486166 -0.335258 -0.021961
v 0.137271 -0.181083 -0.841602
v 0.247285 -0.522874 -0.683948
v 0.354473 -0.426385 -0.547840
v 0.177904 -0.180396 -0.787605
v 0.441144 0.495280 0.036688
v 0.479066 0.231326 -0.257142
v 0.462828 0.206753 -0.172120
v 0.395355 0.345670 0.176176
v 0.223761 -0.173161 -0.729040
v 0.431645 -0.280327 -0.457330
v 0.420679 -0.293568 0.050089
v 0.315829 -0.346970 1.004277
v 0.386574 -0.309297 0.167528
v 0.003592 0.093485 -0.998097
v 0.180082 0.076714 -0.812379
v 0.321884 0.130654 -0.622887
v 0.456257 0.177679 -0.086977
v 0.161007 0.096214 -0.837676
v 0.261180 0.166161 -0.707651
v 0.159317 0.135401 -0.842613
v 0.186747 0.181151 -0.810388
v -0.148900 0.149428 -1.112578
v -0.267921 0.315010 -1.336496
v -0.312253 0.336299 -1.439710
v -0.313345 0.276427 -1.420828
v 0.021806 -0.176572 -0.970078
v -0.182908 -0.255218 -1.118709
v -0.321142 -0.411825 -1.342261
v -0.372910 -0.418139 -1.430098
v -0.374205 -0.343212 -1.421277
v 0.009266 0.156044 1.097243
v -0.048256 0.063100 1.406063
v -0.055684 -0.082772 1.439098
v -0.074603 -0.023238 1.545276
v -0.074359 -0.064348 1.541846
v 0.003004 -0.272798 1.109457
v -0.047561 -0.214704 1.388072
v -0.047200 -0.109572 1.391481
v -0.077344 -0.131220 1.554699
v -0.075081 -0.084242 1.544764
v 0.099982 0.195127 0.759707
v 0.227108 0.027481 0.755206
v 0.108962 -0.324099 0.729843
v 0.232075 -0.151276 0.741256
v 0.368560 0.212527 0.257865
v 0.500191 0.041033 0.258798
v 0.531363 -0.382785 -0.085549
v 0.487708 -0.584737 0.065356
v 0.469602 -0.493395 0.137331
v 0.514373 -0.335959 -0.019681
v 0.153068 -0.181961 -0.852937
v 0.256462 -0.525332 -0.689651
v 0.385787 -0.427515 -0.554229
v 0.209110 -0.181554 -0.794566
v 0.443786 0.480699 0.040091
v 0.489770 0.240695 -0.245491
v 0.491225 0.206038 -0.170562
v 0.407834 0.345662 0.169966
v 0.253848 -0.174298 -0.735675
v 0.273337 -0.105151 -0.798874
v 0.451607 -0.131142 -0.586458
v 0.463327 -0.281432 -0.463135
v 0.454094 -0.294297 0.052763
v 0.594677 -0.146232 -0.105710
v 0.524915 -0.149249 0.220994
v 0.419370 -0.309737 0.170488
v 0.041680 0.068407 -0.994302
v 0.017192 -0.020202 -1.017780
v 0.243943 -0.030961 -0.835427
v 0.205835 0.075664 -0.818345
v 0.347464 0.116466 -0.628746
v 0.406353 -0.011457 -0.637784
v 0.570753 0.014001 -0.100688
v 0.484065 0.176975 -0.085075
v 0.187200 0.095155 -0.843775
v 0.267659 0.152341 -0.709646
v 0.173857 0.134742 -0.841596
v 0.194353 0.167308 -0.813093
v -0.104866 0.124286 -1.108908
v -0.140173 0.044160 -1.149673
v -0.246798 0.290281 -1.324468
v -0.249803 0.211479 -1.331881
v -0.285782 0.311490 -1.428700
v -0.281647 0.264700 -1.401136
v 0.059364 -0.161018 -0.973366
v 0.015164 -0.090644 -1.022196
v -0.144633 -0.239644 -1.121150
v -0.166701 -0.178838 -1.155914
v -0.291817 -0.396031 -1.338019
v -0.290534 -0.323673 -1.341132
v -0.340336 -0.402401 -1.426808
v -0.332800 -0.355089 -1.403678
v 0.037773 0.144557 1.097831
v 0.139000 0.017001 1.049949
v -0.019749 0.051614 1.406651
v 0.005108 -0.078763 1.442434
v -0.048777 -0.024547 1.528117
v -0.042695 -0.064417 1.525808
v 0.039728 -0.260434 1.109206
v 0.146795 -0.163101 1.082427
v -0.010836 -0.202339 1.387821
v 0.042403 -0.105642 1.396390
v -0.040779 -0.132300 1.554633
v -0.041687 -0.085314 1.544524
v 0.172191 -0.179338 0.910260
v 0.160150 -0.176523 0.978542
v 0.122225 -0.217831 0.987779
v 0.135942 -0.216930 0.905499
v 0.450941 -0.470221 0.860067
v 0.439728 -0.520436 0.873236
v 0.435833 -0.460272 0.897726
v 0.433622 -0.508326 0.902774
v 0.073288 -0.337006 0.726029
v -0.224417 -0.357771 0.948327
v -0.193036 -0.314133 0.762323
v -0.240687 -0.283974 0.796380
v 0.412081 -0.381614 -0.095117
v 0.368489 -0.583570 0.055629
v 0.350382 -0.492228 0.127578
v 0.395047 -0.334789 -0.029235
v -0.279972 -0.345273 0.967090
v 0.043155 0.195286 0.756478
v -0.082677 0.028351 0.737575
v 0.037989 -0.323872 0.722248
v -0.085777 -0.150362 0.720112
v 0.313550 0.212739 0.249725
v 0.202163 0.042146 0.211191
v 0.383900 -0.382025 -0.097352
v 0.340318 -0.583981 0.053356
v 0.322227 -0.492640 0.125290
v 0.366903 -0.335199 -0.031465
v 0.111378 -0.181157 -0.843616
v 0.233142 -0.524897 -0.684723
v 0.323028 -0.426364 -0.541403
v 0.146656 -0.180350 -0.780604
v 0.436596 0.480735 0.039457
v 0.464549 0.240838 -0.246841
v 0.434361 0.206358 -0.173635
v 0.388138 0.345755 0.167908
v 0.191394 -0.173094 -0.721713
v 0.109224 -0.101995 -0.761257
v 0.259873 -0.127564 -0.545986
v 0.400245 -0.280337 -0.451509
v 0.387496 -0.293953 0.047484
v 0.339341 -0.144599 -0.116632
v 0.212507 -0.148013 0.175617
v 0.353021 -0.309409 0.164506
v -0.006287 0.069275 -0.977456
v -0.047199 -0.019044 -0.994364
v 0.091822 -0.028040 -0.800174
v 0.153382 0.076670 -0.806109
v 0.294605 0.117485 -0.616928
v 0.226966 -0.007999 -0.597678
v 0.327067 0.015355 -0.114537
v 0.427443 0.177280 -0.088855
v 0.134755 0.096161 -0.831531
v 0.252464 0.152634 -0.706234
v 0.150534 0.135190 -0.836181
v 0.176507 0.167651 -0.808979
v -0.152592 0.125130 -1.092431
v -0.204564 0.045318 -1.126258
v -0.297611 0.290932 -1.321355
v -0.318346 0.212378 -1.326431
v -0.336299 0.312160 -1.424305
v -0.332130 0.265372 -1.396596
v 0.002445 -0.159985 -0.953714
v -0.059783 -0.089296 -0.994943
v -0.201385 -0.238671 -1.103258
v -0.242526 -0.177545 -1.132460
v -0.351330 -0.395230 -1.332077
v -0.369495 -0.322576 -1.331251
v -0.399516 -0.401578 -1.419429
v -0.393900 -0.354231 -1.395555
v -0.019102 0.144716 1.094728
v -0.103294 0.017677 1.036729
v -0.076623 0.051772 1.403548
v -0.116405 -0.078424 1.435804
v -0.093707 -0.024421 1.525666
v -0.099570 -0.064258 1.522705
v -0.032671 -0.260232 1.105256
v -0.126076 -0.162340 1.067540
v -0.083235 -0.202137 1.383871
v -0.136733 -0.105143 1.386616
v -0.113178 -0.132098 1.550683
v -0.107744 -0.085130 1.540920
v -0.097075 -0.178573 0.893654
v -0.109331 -0.175762 0.962576
v -0.079389 -0.217259 0.975517
v -0.065300 -0.216352 0.892255
v -0.354372 -0.467927 0.809535
v -0.349854 -0.518187 0.823727
v -0.355104 -0.458019 0.848141
v -0.355959 -0.506077 0.853274
vn -0.6313 -0.7290 -0.2646
vn 0.0687 -0.9780 0.1967
vn 0.2316 -0.3828 -0.8943
vn 0.7218 -0.5685 0.3947
vn 0.0576 0.8856 -0.4608
vn 0.4640 -0.8626 -0.2015
vn 0.3464 0.7613 0.5481
vn 0.5407 0.7940 0.2780
vn -0.0884 -0.1999 0.9758
vn 0.2530 0.2325 -0.9391
vn 0.4995 -0.0224 0.8660
vn -0.0294 -0.9992 -0.0261
vn -0.8672 -0.2691 -0.4189
vn -0.9654 0.0143 -0.2604
vn 0.0296 0.9989 -0.0352
vn 0.3262 0.4458 0.8336
vn 0.0662 0.8212 -0.5667
vn 0.3857 -0.8515 0.3552
vn 0.2543 0.9540 -0.1589
vn 0.3471 0.8782 0.3290
vn 0.5189 0.8064 -0.2837
vn 0.1389 -0.8899 0.4346
vn 0.0497 -0.6047 -0.7949
vn -0.0170 0.9876 -0.1559
vn 0.0107 0.2085 0.9780
vn 0.3417 0.9153 0.2133
vn 0.3776 -0.9255 -0.0297
vn 0.5762 0.4684 0.6698
vn 0.3623 0.9097 0.2027
vn 0.7512 0.4625 -0.4710
vn 0.0180 -0.8637 0.5038
vn 0.3107 -0.9177 0.2477
vn -0.1260 -0.0587 -0.9903
vn -0.0040 -0.9465 -0.3228
vn 0.4443 -0.0380 -0.8951
vn 0.2567 0.4892 -0.8335
vn 0.1815 -0.9686 -0.1702
vn 0.3514 0.8842 -0.3077
vn -0.7454 -0.6080 -0.2734
vn 0.6949 0.5894 -0.4120
vn 0.6176 0.7618 -0.1956
vn -0.0775 0.5965 -0.7989
vn 0.0837 -0.8435 0.5306
vn -0.1562 -0.8358 -0.5263
vn 0.7489 0.6407 -0.1695
vn 0.8737 0.0021 0.4864
vn 0.7267 0.5501 0.4114
vn 0.8810 0.2414 0.4068
vn 0.7889 -0.0288 -0.6138
vn 0.9820 0.0261 0.1871
vn 0.9402 0.1851 -0.2859
vn 0.7692 0.0065 -0.6390
vn 0.9744 0.1114 0.1954
vn 0.7437 -0.0993 -0.6611
vn 0.5789 -0.5399 -0.6111
vn 0.7983 -0.5796 0.1636
vn 0.9654 -0.0145 0.2603
vn 0.8600 -0.4936 -0.1293
vn 0.9613 0.0187 0.2749
vn 0.6635 0.1963 -0.7220
vn 0.7058 0.3598 -0.6102
vn 0.8509 0.4489 -0.2727
vn 0.8284 0.5332 0.1719
vn 0.7706 0.2244 -0.5966
vn 0.7922 0.1706 -0.5859
vn 0.6435 0.0624 -0.7629
vn 0.8321 -0.0327 -0.5537
vn 0.9158 -0.0556 -0.3977
vn 0.6383 -0.4100 -0.6515
vn 0.6273 -0.1677 -0.7605
vn 0.8374 -0.0246 -0.5460
vn 0.8547 0.0238 -0.5186
vn 0.6393 -0.0495 -0.7673
vn 0.6176 -0.0316 -0.7859
vn 0.8406 -0.0636 -0.5380
vn 0.8653 -0.0638 -0.4971
vn 0.7878 0.5665 0.2418
vn 0.8511 0.4001 0.3400
vn 0.8830 0.2398 0.4035
vn 0.7786 -0.6036 0.1718
vn 0.7470 -0.5881 0.3100
vn 0.8621 -0.3097 0.4010
vn 0.9289 0.1812 0.3231
vn 0.9632 0.0479 0.2643
vn 0.7024 -0.6798 0.2108
vn 0.7713 -0.6004 0.2114
vn 0.7480 -0.6263 0.2196
vn 0.6376 0.7117 0.2949
vn -0.0795 -0.6266 0.7753
vn 0.1359 -0.5740 0.8075
vn 0.0085 0.9916 -0.1289
vn -0.5351 -0.4893 -0.6887
vn 0.3031 -0.9024 -0.3062
vn -0.1365 -0.0785 0.9875
vn 0.9445 -0.0695 0.3210
vn 0.1700 -0.4328 0.8853
vn 0.4638 0.0293 -0.8854
vn 0.8002 0.5124 0.3118
vn 0.1731 -0.9831 0.0596
vn 0.6619 -0.7495 -0.0122
vn -0.0945 -0.9813 0.1677
vn -0.4501 -0.3683 -0.8135
vn -0.7214 -0.5582 -0.4099
vn 0.0254 0.8835 -0.4678
vn -0.4003 -0.8689 0.2912
vn -0.4123 0.8028 0.4307
vn -0.2866 0.6858 0.6690
vn -0.0824 -0.1962 0.9771
vn -0.5845 0.2288 -0.7785
vn -0.6580 -0.0138 0.7529
vn 0.0048 -0.9996 -0.0266
vn 0.9491 -0.3045 0.0803
vn 0.9654 -0.0142 0.2604
vn -0.0015 0.9999 -0.0118
vn -0.6523 0.6325 0.4177
vn 0.0335 0.8187 -0.5732
vn -0.1782 -0.7523 0.6343
vn -0.2375 0.9706 -0.0378
vn -0.3786 0.9034 0.2014
vn -0.2844 0.6624 0.6931
vn -0.1917 -0.9041 0.3819
vn 0.0722 -0.6065 -0.7918
vn 0.0390 0.9885 -0.1459
vn -0.1168 0.2130 0.9701
vn -0.3748 0.9119 -0.1671
vn -0.1547 -0.7704 0.6185
vn -0.7934 0.5354 0.2896
vn -0.3754 0.9243 0.0691
vn -0.6535 0.5162 0.5536
vn -0.0773 -0.8685 0.4896
vn -0.3431 -0.9300 0.1317
vn -0.3370 -0.0545 -0.9399
vn 0.0322 -0.9464 -0.3213
vn -0.8064 0.0795 -0.5860
vn -0.6380 0.6921 -0.3376
vn -0.2303 -0.9580 0.1707
vn -0.3346 0.8797 0.3381
vn 0.7713 -0.6351 0.0412
vn -0.5552 0.5957 -0.5804
vn -0.4248 0.7232 0.5445
vn 0.1828 0.6143 -0.7676
vn 0.1018 -0.8480 0.5201
vn -0.1260 -0.8295 -0.5440
vn -0.4993 0.7866 0.3633
vn -0.8774 0.0514 -0.4770
vn -0.7278 0.5751 -0.3737
vn -0.9563 0.2735 -0.1037
vn -0.7875 0.0290 0.6156
vn -0.9582 0.1803 -0.2222
vn -0.9735 -0.1232 0.1924
vn -0.8240 0.0500 0.5644
vn -0.9262 -0.0193 -0.3766
vn -0.8401 -0.0609 0.5390
vn -0.7564 -0.4982 0.4238
vn -0.7335 -0.6013 -0.3168
vn -0.9654 0.0144 -0.2603
vn -0.8646 -0.5004 0.0456
vn -0.9425 0.1945 -0.2719
vn -0.7244 0.3508 0.5935
vn -0.7530 0.4727 0.4578
vn -0.8543 0.4959 0.1560
vn -0.7671 0.5517 -0.3274
vn -0.7807 0.2919 0.5525
vn -0.7745 0.2722 0.5710
vn -0.6049 0.0956 0.7906
vn -0.7631 0.1993 0.6148
vn -0.9155 0.1855 0.3570
vn -0.7254 -0.4349 0.5335
vn -0.5878 -0.0290 0.8085
vn -0.7520 -0.2001 0.6281
vn -0.8674 -0.1857 0.4617
vn -0.8018 0.1284 0.5837
vn -0.6223 0.0893 0.7777
vn -0.8503 0.0924 0.5182
vn -0.9539 0.0924 0.2856
vn -0.8067 0.5890 -0.0483
vn -0.9015 0.4320 0.0254
vn -0.9593 0.2712 0.0793
vn -0.9360 -0.3290 -0.1254
vn -0.8010 -0.5978 0.0333
vn -0.9464 -0.3118 0.0846
vn -0.9783 0.2059 -0.0212
vn -0.9935 0.0683 -0.0912
vn -0.7511 -0.6600 0.0128
vn -0.7982 -0.5881 -0.1305
vn -0.7125 -0.7008 -0.0352
vn -0.6645 0.7463 0.0392
vn -0.0540 -0.6244 0.7792
vn 0.1562 -0.5775 0.8013
vn -0.0220 0.9942 -0.1057
vn 0.0844 -0.3941 -0.9152
vn -0.2682 -0.8741 -0.4049
vn 0.0133 -0.0864 0.9962
vn -0.9952 -0.0533 -0.0826
vn -0.2948 -0.4553 0.8401
vn -0.3100 0.0336 -0.9501
vn -0.8390 0.5435 -0.0269
vn -0.1714 -0.9761 -0.1334
vn 0.3127 -0.9258 0.2124
vn -0.3481 -0.9330 0.0916
vt 0.804086 0.249845
vt 0.830044 0.264497
vt 0.850078 0.316987
vt 0.784241 0.296920
vt 0.785328 0.481006
vt 0.786478 0.518632
vt 0.784487 0.518425
vt 0.784241 0.487287
vt 0.641322 0.716527
vt 0.662792 0.709312
vt 0.654011 0.714568
vt 0.637186 0.725410
vt 0.640831 0.294334
vt 0.645156 0.109188
vt 0.694437 0.111479
vt 0.703726 0.310851
vt 0.737234 0.381222
vt 0.699293 0.373955
vt 0.698798 0.372882
vt 0.737401 0.380762
vt 0.394550 0.745459
vt 0.392460 0.709312
vt 0.398224 0.712287
vt 0.400369 0.748342
vt 0.250971 0.844649
vt 0.210215 0.887867
vt 0.211102 0.881216
vt 0.246964 0.843443
vt 0.655116 0.751415
vt 0.595672 0.843310
vt 0.586820 0.848522
vt 0.646276 0.756617
vt 0.704377 0.310303
vt 0.763248 0.327662
vt 0.763124 0.328120
vt 0.419126 0.712839
vt 0.415043 0.721747
vt 0.195895 0.883696
vt 0.197180 0.877403
vt 0.624392 0.599081
vt 0.623483 0.599013
vt 0.852567 0.453438
vt 0.821611 0.458225
vt 0.833020 0.378652
vt 0.883288 0.423043
vt 0.792361 0.459314
vt 0.792361 0.368340
vt 0.571543 0.708800
vt 0.549690 0.707406
vt 0.550178 0.706763
vt 0.572525 0.708300
vt 0.474158 0.248385
vt 0.519069 0.240117
vt 0.521690 0.244757
vt 0.472711 0.250530
vt 0.757816 0.384797
vt 0.757732 0.384339
vt 0.450153 0.838654
vt 0.455993 0.841550
vt 0.457071 0.630030
vt 0.454913 0.387684
vt 0.455700 0.386790
vt 0.461467 0.630691
vt 0.306675 0.741624
vt 0.302666 0.740423
vt 0.575954 0.893084
vt 0.567101 0.898332
vt 0.168904 0.874120
vt 0.153721 0.817570
vt 0.158306 0.817656
vt 0.169335 0.873169
vt 0.783729 0.347433
vt 0.783160 0.347510
vt 0.791850 0.537566
vt 0.784893 0.593160
vt 0.784241 0.592289
vt 0.789388 0.537496
vt 0.183713 0.879030
vt 0.183855 0.878056
vt 0.544648 0.093232
vt 0.547867 0.093860
vt 0.478632 0.903969
vt 0.484476 0.906898
vt 0.392460 0.255591
vt 0.397611 0.258241
vt 0.566299 0.000256
vt 0.569472 0.000788
vt 0.428870 0.692723
vt 0.440288 0.657115
vt 0.444721 0.658071
vt 0.433321 0.693406
vt 0.153721 0.714594
vt 0.158349 0.714716
vt 0.453827 0.703204
vt 0.442648 0.704672
vt 0.442853 0.703450
vt 0.453805 0.702703
vt 0.422521 0.395351
vt 0.422399 0.394671
vt 0.479191 0.999692
vt 0.479949 0.999744
vt 0.570435 0.968803
vt 0.569782 0.968825
vt 0.791312 0.367828
vt 0.784241 0.358715
vt 0.392460 0.412001
vt 0.392790 0.406372
vt 0.337466 0.715432
vt 0.352885 0.710328
vt 0.318353 0.758416
vt 0.307186 0.775589
vt 0.622760 0.670983
vt 0.576719 0.706967
vt 0.576015 0.707162
vt 0.622017 0.670739
vt 0.461880 0.698946
vt 0.461701 0.698384
vt 0.571698 0.266738
vt 0.594486 0.101463
vt 0.548274 0.691711
vt 0.505306 0.637265
vt 0.534880 0.416146
vt 0.610654 0.435209
vt 0.552290 0.628262
vt 0.520672 0.702125
vt 0.494227 0.708685
vt 0.531800 0.966042
vt 0.535149 0.888956
vt 0.558006 0.832245
vt 0.618048 0.753586
vt 0.505154 0.980351
vt 0.509791 0.887546
vt 0.477859 0.828205
vt 0.426252 0.747928
vt 0.603167 0.018402
vt 0.261445 0.712234
vt 0.198339 0.846050
vt 0.652547 0.012319
vt 0.655100 0.041408
vt 0.655117 0.060688
vt 0.195359 0.710328
vt 0.192349 0.827141
vt 0.679617 0.004379
vt 0.666704 0.038683
vt 0.665738 0.061871
vt 0.381533 0.716118
vt 0.371398 0.761611
vt 0.547757 0.691763
vt 0.381206 0.731408
vt 0.374254 0.768096
vt 0.357280 0.827099
vt 0.369328 0.817184
vt 0.381533 0.833676
vt 0.371211 0.844834
vt 0.698052 0.111391
vt 0.830233 0.131351
vt 0.850078 0.178426
vt 0.784241 0.198492
vt 0.804275 0.146002
vt 0.785328 0.480494
vt 0.784241 0.474213
vt 0.784487 0.443076
vt 0.786478 0.442868
vt 0.684791 0.716528
vt 0.688931 0.725417
vt 0.672093 0.714570
vt 0.663304 0.709312
vt 0.248225 0.417855
vt 0.311342 0.402680
vt 0.298141 0.601359
vt 0.248948 0.602688
vt 0.346298 0.333190
vt 0.346456 0.333652
vt 0.307751 0.340666
vt 0.308270 0.339606
vt 0.931706 0.745485
vt 0.925883 0.748368
vt 0.928039 0.712288
vt 0.933807 0.709312
vt 0.097506 0.753545
vt 0.093499 0.754752
vt 0.057636 0.716979
vt 0.056750 0.710328
vt 0.670994 0.751443
vt 0.679841 0.756646
vt 0.739354 0.848570
vt 0.730498 0.843361
vt 0.311981 0.403240
vt 0.370976 0.386724
vt 0.371089 0.387183
vt 0.911206 0.721750
vt 0.907121 0.712836
vt 0.043714 0.720792
vt 0.042430 0.714499
vt 0.237884 0.112999
vt 0.238794 0.112954
vt 0.844446 0.599548
vt 0.875168 0.629943
vt 0.824900 0.674334
vt 0.813491 0.594761
vt 0.784241 0.684645
vt 0.784241 0.593672
vt 0.188713 0.002068
vt 0.189682 0.002591
vt 0.167333 0.003576
vt 0.166862 0.002921
vt 0.081023 0.460841
vt 0.079610 0.458694
vt 0.128267 0.465081
vt 0.125571 0.469665
vt 0.366909 0.330070
vt 0.366816 0.330526
vt 0.876029 0.838697
vt 0.870187 0.841588
vt 0.072416 0.077899
vt 0.076829 0.077351
vt 0.064731 0.321346
vt 0.063967 0.320416
vt 0.153209 0.856570
vt 0.149201 0.857772
vt 0.759109 0.898362
vt 0.750253 0.893125
vt 0.015439 0.724075
vt 0.015870 0.725026
vt 0.004840 0.780539
vt 0.000256 0.780624
vt 0.391949 0.367903
vt 0.391383 0.367814
vt 0.791850 0.423934
vt 0.789388 0.424004
vt 0.784241 0.369211
vt 0.784893 0.368340
vt 0.030248 0.719165
vt 0.030389 0.720139
vt 0.151625 0.616116
vt 0.148402 0.616683
vt 0.847477 0.903943
vt 0.841633 0.906849
vt 0.000256 0.452923
vt 0.005432 0.450332
vt 0.171401 0.709346
vt 0.168227 0.709816
vt 0.045821 0.014555
vt 0.050284 0.013984
vt 0.060783 0.049568
vt 0.056331 0.050412
vt 0.004884 0.883479
vt 0.000256 0.883600
vt 0.071014 0.004714
vt 0.070980 0.005213
vt 0.060058 0.004192
vt 0.059884 0.002966
vt 0.031006 0.311779
vt 0.031197 0.311099
vt 0.847182 0.999520
vt 0.846421 0.999520
vt 0.756538 0.968811
vt 0.755886 0.968790
vt 0.850078 0.240220
vt 0.843007 0.249334
vt 0.000256 0.295233
vt 0.000587 0.300848
vt 0.810945 0.125109
vt 0.784241 0.065241
vt 0.794175 0.082142
vt 0.825781 0.130839
vt 0.238928 0.041095
vt 0.238179 0.041321
vt 0.193139 0.003814
vt 0.193837 0.004026
vt 0.078951 0.009170
vt 0.078759 0.009726
vt 0.178638 0.444044
vt 0.198263 0.609419
vt 0.165060 0.018558
vt 0.120787 0.071876
vt 0.167499 0.082036
vt 0.221109 0.276397
vt 0.144825 0.293730
vt 0.111503 0.000256
vt 0.137752 0.007471
vt 0.791026 0.888961
vt 0.794501 0.965966
vt 0.768161 0.832280
vt 0.708084 0.753607
vt 0.821153 0.980205
vt 0.816346 0.887536
vt 0.848321 0.828227
vt 0.899985 0.747945
vt 0.205334 0.692421
vt 0.107980 0.885961
vt 0.044874 0.752144
vt 0.257948 0.651250
vt 0.257559 0.670477
vt 0.254453 0.699436
vt 0.038883 0.771054
vt 0.041894 0.887867
vt 0.269078 0.673419
vt 0.281292 0.707877
vt 0.268563 0.650275
vt 0.851239 0.079682
vt 0.854317 0.128836
vt 0.164545 0.018494
vt 0.856636 0.074284
vt 0.858810 0.116793
vt 0.833046 0.018125
vt 0.848099 0.000256
vt 0.858810 0.012058
vt 0.844245 0.028906
vt 0.301745 0.601517
vt 0.683151 0.003843
vt 0.284807 0.708479
s 0
usemtl 
f 116/1/1 117/2/1 3/3/1 2/4/1
f 44/5/2 42/6/2 105/7/2 107/8/2
f 34/9/3 33/10/3 92/11/3 93/12/3
f 74/13/4 53/14/4 52/15/4 75/16/4
f 9/17/5 20/18/5 72/19/5 59/20/5
f 37/21/6 38/22/6 100/23/6 98/24/6
f 41/25/7 43/26/7 106/27/7 104/28/7
f 32/29/8 31/30/8 88/31/8 90/32/8
f 22/33/9 8/34/9 58/35/9 75/16/9
f 38/22/10 39/36/10 101/37/10 100/23/10
f 43/26/11 44/38/11 107/39/11 106/27/11
f 20/18/12 19/40/12 71/41/12 72/19/12
f 20/42/13 9/43/13 8/44/13 22/45/13
f 9/43/14 6/46/14 7/47/14 8/44/14
f 10/48/15 13/49/15 63/50/15 60/51/15
f 17/52/16 5/53/16 54/54/16 67/55/16
f 6/56/17 9/17/17 59/20/17 56/57/17
f 36/58/18 37/21/18 98/24/18 96/59/18
f 25/60/19 26/61/19 83/62/19 80/63/19
f 40/64/20 41/25/20 104/28/20 102/65/20
f 31/30/21 23/66/21 76/67/21 88/31/21
f 48/68/22 46/69/22 110/70/22 112/71/22
f 7/72/23 6/56/23 56/57/23 57/73/23
f 47/74/24 49/75/24 113/76/24 111/77/24
f 49/78/25 48/68/25 112/71/25 113/79/25
f 5/53/26 1/80/26 50/81/26 54/54/26
f 35/82/27 36/58/27 96/59/27 94/83/27
f 14/84/28 17/52/28 67/55/28 64/85/28
f 1/80/29 40/86/29 102/87/29 50/81/29
f 30/88/30 28/89/30 85/90/30 87/91/30
f 42/6/31 47/74/31 111/77/31 105/7/31
f 46/69/32 45/92/32 108/93/32 110/70/32
f 27/94/33 29/95/33 86/96/33 84/97/33
f 26/61/34 16/98/34 66/99/34 83/62/34
f 39/36/35 34/9/35 93/12/35 101/37/35
f 29/95/36 30/88/36 87/91/36 86/96/36
f 18/100/37 35/82/37 94/83/37 68/101/37
f 23/66/38 24/102/38 79/103/38 76/67/38
f 2/4/39 3/3/39 119/104/39 121/105/39
f 15/106/40 14/84/40 64/85/40 65/107/40
f 28/89/41 25/60/41 80/63/41 85/90/41
f 117/108/42 114/109/42 4/110/42 3/111/42
f 12/112/43 11/113/43 61/114/43 62/115/43
f 24/116/44 27/94/44 84/97/44 79/117/44
f 33/10/45 32/29/45 90/32/45 92/11/45
f 55/118/46 51/119/46 53/14/46 74/13/46
f 51/119/47 55/118/47 54/54/47 50/81/47
f 72/19/48 75/16/48 58/35/48 59/20/48
f 68/120/49 71/41/49 62/115/49 63/50/49
f 67/55/50 66/99/50 65/107/50 64/85/50
f 81/121/51 82/122/51 73/123/51 70/124/51
f 81/121/52 70/124/52 69/125/52 78/126/52
f 55/118/53 74/13/53 73/123/53 82/122/53
f 63/50/54 62/115/54 61/114/54 60/51/54
f 70/124/55 71/41/55 68/120/55 69/125/55
f 74/13/56 75/16/56 72/19/56 73/123/56
f 59/20/57 58/35/57 57/73/57 56/57/57
f 73/123/58 72/19/58 71/41/58 70/124/58
f 54/54/59 83/62/59 66/99/59 67/55/59
f 79/103/60 78/127/60 77/128/60 76/67/60
f 80/63/61 81/121/61 78/126/61 79/117/61
f 83/62/62 82/122/62 81/121/62 80/63/62
f 54/54/63 55/118/63 82/122/63 83/62/63
f 80/63/64 79/117/64 84/97/64 85/90/64
f 85/90/65 84/97/65 86/96/65 87/91/65
f 76/67/66 77/128/66 89/129/66 88/31/66
f 88/31/67 89/129/67 91/130/67 90/32/67
f 90/32/68 91/130/68 93/12/68 92/11/68
f 69/131/69 68/101/69 94/83/69 95/132/69
f 95/132/70 94/83/70 96/59/70 97/133/70
f 97/133/71 96/59/71 98/24/71 99/134/71
f 99/134/72 98/24/72 100/23/72 101/37/72
f 69/131/73 95/132/73 77/128/73 78/127/73
f 77/128/74 95/132/74 97/133/74 89/129/74
f 89/129/75 97/133/75 99/134/75 91/130/75
f 91/130/76 99/134/76 101/37/76 93/12/76
f 51/119/77 50/81/77 102/87/77 103/135/77
f 103/136/78 102/65/78 104/28/78 105/137/78
f 105/137/79 104/28/79 106/27/79 107/39/79
f 53/14/80 109/138/80 115/139/80 114/140/80
f 108/93/81 109/141/81 111/142/81 110/70/81
f 110/70/82 111/142/82 113/79/82 112/71/82
f 109/141/83 103/136/83 105/137/83 111/142/83
f 109/138/84 53/14/84 51/119/84 103/135/84
f 109/138/85 108/143/85 116/144/85 115/139/85
f 52/15/86 53/14/86 114/140/86 117/145/86
f 108/143/87 52/15/87 117/145/87 116/144/87
f 114/109/88 115/146/88 21/147/88 4/110/88
f 8/34/89 7/72/89 57/73/89 58/35/89
f 19/40/90 12/112/90 62/115/90 71/41/90
f 13/49/91 18/148/91 68/120/91 63/50/91
f 11/113/92 10/48/92 60/51/92 61/114/92
f 16/98/93 15/106/93 65/107/93 66/99/93
f 115/146/94 116/149/94 2/150/94 21/147/94
f 118/151/95 120/152/95 121/153/95 119/154/95
f 21/147/96 2/150/96 121/153/96 120/152/96
f 3/111/97 4/110/97 118/151/97 119/154/97
f 4/110/98 21/147/98 120/152/98 118/151/98
f 75/16/99 52/15/99 122/155/99 22/33/99
f 197/156/100 123/157/100 124/158/100 198/159/100
f 44/160/101 188/161/101 186/162/101 42/163/101
f 34/164/102 174/165/102 173/166/102 33/167/102
f 155/168/103 156/169/103 133/170/103 134/171/103
f 129/172/104 140/173/104 153/174/104 20/175/104
f 37/176/105 179/177/105 181/178/105 38/179/105
f 41/180/106 185/181/106 187/182/106 43/183/106
f 32/184/107 171/185/107 169/186/107 31/187/107
f 22/188/108 156/169/108 139/189/108 128/190/108
f 38/179/109 181/178/109 182/191/109 39/192/109
f 43/183/110 187/182/110 188/193/110 44/194/110
f 20/175/111 153/174/111 152/195/111 19/196/111
f 20/197/112 22/198/112 128/199/112 129/200/112
f 129/200/113 128/199/113 127/201/113 126/202/113
f 10/203/114 141/204/114 144/205/114 13/206/114
f 17/207/115 148/208/115 135/209/115 5/210/115
f 126/211/116 137/212/116 140/173/116 129/172/116
f 36/213/117 177/214/117 179/177/117 37/176/117
f 25/215/118 161/216/118 164/217/118 26/218/118
f 40/219/119 183/220/119 185/181/119 41/180/119
f 31/187/120 169/186/120 157/221/120 23/222/120
f 48/223/121 193/224/121 191/225/121 46/226/121
f 127/227/122 138/228/122 137/212/122 126/211/122
f 47/229/123 192/230/123 194/231/123 49/232/123
f 49/233/124 194/234/124 193/224/124 48/223/124
f 5/210/125 135/209/125 131/235/125 1/236/125
f 35/237/126 175/238/126 177/214/126 36/213/126
f 14/239/127 145/240/127 148/208/127 17/207/127
f 1/236/128 131/235/128 183/241/128 40/242/128
f 30/243/129 168/244/129 166/245/129 28/246/129
f 42/163/130 186/162/130 192/230/130 47/229/130
f 46/226/131 191/225/131 189/247/131 45/248/131
f 27/249/132 165/250/132 167/251/132 29/252/132
f 26/218/133 164/217/133 147/253/133 16/254/133
f 39/192/134 182/191/134 174/165/134 34/164/134
f 29/252/135 167/251/135 168/244/135 30/243/135
f 18/255/136 149/256/136 175/238/136 35/237/136
f 23/222/137 157/221/137 160/257/137 24/258/137
f 123/157/138 202/259/138 200/260/138 124/158/138
f 15/261/139 146/262/139 145/240/139 14/239/139
f 28/246/140 166/245/140 161/216/140 25/215/140
f 198/263/141 124/264/141 125/265/141 195/266/141
f 12/267/142 143/268/142 142/269/142 11/270/142
f 24/271/143 160/272/143 165/250/143 27/249/143
f 33/167/144 173/166/144 171/185/144 32/184/144
f 136/273/145 155/168/145 134/171/145 132/274/145
f 132/274/146 131/235/146 135/209/146 136/273/146
f 153/174/147 140/173/147 139/189/147 156/169/147
f 149/275/148 144/205/148 143/268/148 152/195/148
f 148/208/149 145/240/149 146/262/149 147/253/149
f 162/276/150 151/277/150 154/278/150 163/279/150
f 162/276/151 159/280/151 150/281/151 151/277/151
f 136/273/152 163/279/152 154/278/152 155/168/152
f 144/205/153 141/204/153 142/269/153 143/268/153
f 151/277/154 150/281/154 149/275/154 152/195/154
f 155/168/155 154/278/155 153/174/155 156/169/155
f 140/173/156 137/212/156 138/228/156 139/189/156
f 154/278/157 151/277/157 152/195/157 153/174/157
f 135/209/158 148/208/158 147/253/158 164/217/158
f 160/257/159 157/221/159 158/282/159 159/283/159
f 161/216/160 160/272/160 159/280/160 162/276/160
f 164/217/161 161/216/161 162/276/161 163/279/161
f 135/209/162 164/217/162 163/279/162 136/273/162
f 161/216/163 166/245/163 165/250/163 160/272/163
f 166/245/164 168/244/164 167/251/164 165/250/164
f 157/221/165 169/186/165 170/284/165 158/282/165
f 169/186/166 171/185/166 172/285/166 170/284/166
f 171/185/167 173/166/167 174/165/167 172/285/167
f 150/286/168 176/287/168 175/238/168 149/256/168
f 176/287/169 178/288/169 177/214/169 175/238/169
f 178/288/170 180/289/170 179/177/170 177/214/170
f 180/289/171 182/191/171 181/178/171 179/177/171
f 150/286/172 159/283/172 158/282/172 176/287/172
f 158/282/173 170/284/173 178/288/173 176/287/173
f 170/284/174 172/285/174 180/289/174 178/288/174
f 172/285/175 174/165/175 182/191/175 180/289/175
f 132/274/176 184/290/176 183/241/176 131/235/176
f 184/291/177 186/292/177 185/181/177 183/220/177
f 186/292/178 188/193/178 187/182/178 185/181/178
f 134/171/179 195/293/179 196/294/179 190/295/179
f 189/247/180 191/225/180 192/296/180 190/297/180
f 191/225/181 193/224/181 194/234/181 192/296/181
f 190/297/182 192/296/182 186/292/182 184/291/182
f 190/295/183 184/290/183 132/274/183 134/171/183
f 190/295/184 196/294/184 197/298/184 189/299/184
f 133/170/185 198/300/185 195/293/185 134/171/185
f 189/299/186 197/298/186 198/300/186 133/170/186
f 195/266/187 125/265/187 130/301/187 196/302/187
f 128/190/188 139/189/188 138/228/188 127/227/188
f 19/196/189 152/195/189 143/268/189 12/267/189
f 13/206/190 144/205/190 149/275/190 18/303/190
f 11/270/191 142/269/191 141/204/191 10/203/191
f 16/254/192 147/253/192 146/262/192 15/261/192
f 196/302/193 130/301/193 123/304/193 197/305/193
f 199/306/194 200/307/194 202/308/194 201/309/194
f 130/301/195 201/309/195 202/308/195 123/304/195
f 124/264/196 200/307/196 199/306/196 125/265/196
f 125/265/197 199/306/197 201/309/197 130/301/197
f 156/169/198 22/188/198 122/310/198 133/170/198
f 52/15/199 108/143/199 45/311/199 122/155/199
f 122/310/200 45/312/200 189/299/200 133/170/200
o steelhead-768x332
v -0.022621 -0.653876 1.614490
v -0.022621 -0.653876 -1.672639
v -0.022621 0.582565 1.614490
v -0.022621 0.582565 -1.672639
vn 1.0000 -0.0000 -0.0000
vt 0.000000 0.000000
vt 1.000000 0.000000
vt 1.000000 1.000000
vt 0.000000 1.000000
s 1
usemtl steelhead-768x332
f 203/313/201 204/314/201 206/315/201 205/316/201
